# xmcd
#
# Track frame offsets:
#	150
#	16221
#	32619
#	46355
#	63237
#	87001
#	108895
#	126962
#	146528
#	160140
#	173496
#	189581
#
# Disc length: 2807 seconds
#
# Revision: 1
# Processed by: cddbd v1.5.2PL0 Copyright (c) Steve Scherf et al.
# Submitted via: audiograbber 1.83.01
#
DISCID=8f0af50c
DTITLE=NONATO LUIZ E ADELSON VIANA - DOBRADO
DYEAR=1900
DGENRE=
TTITLE0=BAIÃO CIGANO
TTITLE1=Choro acadêmico
TTITLE2=Da cidade ao sertão
TTITLE3=Oração
TTITLE4=Sonata ao luar
TTITLE5=5a Sinfonia
TTITLE6=Subindo as nuvens
TTITLE7=Mucuripe
TTITLE8=Disfarcado
TTITLE9=Vem morena
TTITLE10=Frevereiro
TTITLE11=Ave Maria
EXTD=
EXTT0=
EXTT1=
EXTT2=
EXTT3=
EXTT4=
EXTT5=
EXTT6=
EXTT7=
EXTT8=
EXTT9=
EXTT10=
EXTT11=
PLAYORDER=
